<svg width="206" height="31" viewBox="0 0 206 31" fill="none" xmlns="http://www.w3.org/2000/svg">
<rect x="0.555557" y="0.236115" width="205.389" height="29.7778" rx="14.8889" fill="#E6F2F1"/>
<rect x="1.02084" y="0.701392" width="204.458" height="28.8472" rx="14.4236" stroke="#8AC3BC" stroke-opacity="0.15" stroke-width="0.930556"/>
<rect x="4.27779" y="3.95845" width="22.3333" height="22.3333" rx="11.1667" fill="#B0D7D2"/>
<rect x="4.74307" y="4.42373" width="21.4028" height="21.4028" rx="10.7014" stroke="#8AC3BC" stroke-opacity="0.15" stroke-width="0.930556"/>
<g clip-path="url(#clip0_1_248)">
<path d="M20.5625 13.264C20.563 12.4015 20.3456 11.5528 19.9303 10.7969C19.5151 10.0409 18.9155 9.40213 18.1873 8.9399C17.4591 8.47767 16.6259 8.20697 15.7651 8.15294C14.9043 8.0989 14.0438 8.26329 13.2635 8.63084C12.4832 8.99838 11.8085 9.55715 11.302 10.2553C10.7954 10.9534 10.4735 11.7682 10.3662 12.624C10.2589 13.4798 10.3695 14.3488 10.6879 15.1504C11.0064 15.952 11.5222 16.6601 12.1875 17.209V21.639C12.1875 21.7183 12.2077 21.7964 12.2463 21.8657C12.2849 21.935 12.3406 21.9933 12.4081 22.0351C12.4756 22.0768 12.5526 22.1006 12.6319 22.1041C12.7112 22.1077 12.79 22.0909 12.861 22.0554L15.4445 20.7666L18.0285 22.0583C18.0933 22.0893 18.1643 22.105 18.2361 22.1043C18.3595 22.1043 18.4779 22.0552 18.5651 21.968C18.6524 21.8807 18.7014 21.7624 18.7014 21.639V17.209C19.2835 16.7295 19.7523 16.1271 20.0741 15.4451C20.3959 14.763 20.5627 14.0181 20.5625 13.264ZM11.257 13.264C11.257 12.4358 11.5026 11.6262 11.9627 10.9375C12.4228 10.2489 13.0768 9.71217 13.842 9.39523C14.6071 9.07829 15.4491 8.99536 16.2614 9.15694C17.0737 9.31852 17.8198 9.71734 18.4055 10.303C18.9911 10.8886 19.3899 11.6347 19.5515 12.447C19.7131 13.2593 19.6302 14.1013 19.3132 14.8665C18.9963 15.6316 18.4595 16.2856 17.7709 16.7458C17.0823 17.2059 16.2727 17.4515 15.4445 17.4515C14.3342 17.4502 13.2699 17.0087 12.4848 16.2236C11.6998 15.4386 11.2582 14.3742 11.257 13.264ZM17.7709 20.8864L15.6521 19.8273C15.5875 19.795 15.5162 19.7781 15.4439 19.7781C15.3716 19.7781 15.3003 19.795 15.2357 19.8273L13.1181 20.8864V17.822C13.8383 18.1901 14.6356 18.382 15.4445 18.382C16.2533 18.382 17.0506 18.1901 17.7709 17.822V20.8864ZM15.4445 16.5209C16.0886 16.5209 16.7183 16.3299 17.2539 15.972C17.7895 15.6142 18.207 15.1055 18.4535 14.5104C18.7 13.9152 18.7645 13.2604 18.6388 12.6286C18.5132 11.9968 18.203 11.4165 17.7475 10.961C17.292 10.5055 16.7116 10.1953 16.0799 10.0696C15.4481 9.94394 14.7932 10.0084 14.1981 10.255C13.603 10.5015 13.0943 10.9189 12.7364 11.4545C12.3785 11.9901 12.1875 12.6198 12.1875 13.264C12.1884 14.1275 12.5319 14.9554 13.1425 15.566C13.7531 16.1766 14.581 16.52 15.4445 16.5209ZM15.4445 10.9376C15.9046 10.9376 16.3544 11.074 16.7369 11.3297C17.1195 11.5853 17.4177 11.9486 17.5938 12.3737C17.7698 12.7988 17.8159 13.2666 17.7262 13.7178C17.6364 14.1691 17.4148 14.5836 17.0895 14.909C16.7641 15.2343 16.3496 15.4559 15.8983 15.5457C15.447 15.6354 14.9793 15.5894 14.5542 15.4133C14.1291 15.2372 13.7658 14.939 13.5101 14.5564C13.2545 14.1739 13.1181 13.7241 13.1181 13.264C13.1181 12.647 13.3632 12.0553 13.7995 11.619C14.2357 11.1827 14.8275 10.9376 15.4445 10.9376Z" fill="#00352E"/>
</g>
<path d="M36.8536 20.125V12.9783H34.6426V11.8058H40.3376V12.9783H38.1601V20.125H36.8536ZM43.3293 20.259C42.7486 20.259 42.2163 20.1213 41.7325 19.8458C41.256 19.5704 40.8763 19.1944 40.5935 18.718C40.3106 18.2416 40.1691 17.7018 40.1691 17.0988C40.1691 16.4884 40.3106 15.9487 40.5935 15.4797C40.8763 15.0032 41.256 14.631 41.7325 14.363C42.2089 14.0876 42.7412 13.9498 43.3293 13.9498C43.9248 13.9498 44.4571 14.0876 44.9261 14.363C45.4026 14.631 45.7785 15.0032 46.054 15.4797C46.3368 15.9487 46.4783 16.4884 46.4783 17.0988C46.4783 17.7093 46.3368 18.2527 46.054 18.7292C45.7711 19.2056 45.3914 19.5816 44.915 19.857C44.4385 20.125 43.91 20.259 43.3293 20.259ZM43.3293 19.0865C43.6866 19.0865 44.003 19.0009 44.2785 18.8297C44.5539 18.6584 44.7698 18.4239 44.9261 18.1262C45.0899 17.8209 45.1718 17.4785 45.1718 17.0988C45.1718 16.7192 45.0899 16.3804 44.9261 16.0827C44.7698 15.7849 44.5539 15.5504 44.2785 15.3792C44.003 15.2079 43.6866 15.1223 43.3293 15.1223C42.9794 15.1223 42.663 15.2079 42.3801 15.3792C42.1047 15.5504 41.8851 15.7849 41.7213 16.0827C41.565 16.3804 41.4868 16.7192 41.4868 17.0988C41.4868 17.4785 41.565 17.8209 41.7213 18.1262C41.8851 18.4239 42.1047 18.6584 42.3801 18.8297C42.663 19.0009 42.9794 19.0865 43.3293 19.0865ZM47.7102 22.3583V14.0838H48.9162V15.3345L48.771 15.0442C48.9944 14.7017 49.2921 14.4337 49.6644 14.2402C50.0366 14.0466 50.4609 13.9498 50.9374 13.9498C51.5106 13.9498 52.0243 14.0876 52.4784 14.363C52.9399 14.6384 53.301 15.0144 53.5615 15.4908C53.8295 15.9673 53.9635 16.5033 53.9635 17.0988C53.9635 17.6944 53.8295 18.2304 53.5615 18.7068C53.301 19.1833 52.9436 19.5629 52.4895 19.8458C52.0354 20.1213 51.518 20.259 50.9374 20.259C50.4684 20.259 50.0403 20.1622 49.6532 19.9687C49.2735 19.7751 48.9795 19.4959 48.771 19.1312L48.972 18.8967V22.3583H47.7102ZM50.8145 19.0865C51.1719 19.0865 51.4883 19.0009 51.7637 18.8297C52.0391 18.6584 52.255 18.4239 52.4114 18.1262C52.5751 17.8209 52.657 17.4785 52.657 17.0988C52.657 16.7192 52.5751 16.3804 52.4114 16.0827C52.255 15.7849 52.0391 15.5504 51.7637 15.3792C51.4883 15.2079 51.1719 15.1223 50.8145 15.1223C50.4646 15.1223 50.1483 15.2079 49.8654 15.3792C49.5899 15.5504 49.3703 15.7849 49.2065 16.0827C49.0502 16.3804 48.972 16.7192 48.972 17.0988C48.972 17.4785 49.0502 17.8209 49.2065 18.1262C49.3703 18.4239 49.5899 18.6584 49.8654 18.8297C50.1483 19.0009 50.4646 19.0865 50.8145 19.0865ZM55.3808 17.6572V16.5405H59.8475V17.6572H55.3808ZM61.5159 20.125V14.0838H62.7219V15.301L62.6102 15.1223C62.7442 14.7278 62.9601 14.4449 63.2579 14.2737C63.5556 14.095 63.913 14.0057 64.3299 14.0057H64.6984V15.1558H64.1735C63.7566 15.1558 63.4179 15.2861 63.1574 15.5467C62.9042 15.7998 62.7777 16.1646 62.7777 16.641V20.125H61.5159ZM67.3706 20.259C66.9612 20.259 66.6001 20.1883 66.2874 20.0468C65.9822 19.8979 65.744 19.6969 65.5728 19.4438C65.4015 19.1833 65.3159 18.8781 65.3159 18.5282C65.3159 18.2006 65.3867 17.9066 65.5281 17.646C65.677 17.3854 65.904 17.1658 66.2093 16.9872C66.5145 16.8085 66.8979 16.6819 67.3594 16.6075L69.4588 16.2613V17.2552L67.6051 17.579C67.2701 17.6386 67.0244 17.7465 66.8681 17.9028C66.7118 18.0517 66.6336 18.2453 66.6336 18.4835C66.6336 18.7143 66.7192 18.9041 66.8904 19.053C67.0691 19.1944 67.2962 19.2652 67.5716 19.2652C67.914 19.2652 68.2118 19.1907 68.4649 19.0418C68.7255 18.8929 68.9265 18.6957 69.0679 18.45C69.2094 18.1969 69.2801 17.9177 69.2801 17.6125V16.0603C69.2801 15.7626 69.1684 15.5206 68.9451 15.3345C68.7292 15.1409 68.4389 15.0442 68.0741 15.0442C67.7391 15.0442 67.445 15.1335 67.1919 15.3122C66.9463 15.4834 66.7639 15.7067 66.6448 15.9822L65.5951 15.4573C65.7068 15.1596 65.8892 14.899 66.1423 14.6757C66.3954 14.4449 66.6894 14.2662 67.0244 14.1397C67.3669 14.0131 67.7279 13.9498 68.1076 13.9498C68.584 13.9498 69.0047 14.0392 69.3694 14.2178C69.7417 14.3965 70.0283 14.6459 70.2293 14.966C70.4377 15.2787 70.5419 15.6434 70.5419 16.0603V20.125H69.3359V19.0307L69.5928 19.0642C69.4513 19.3098 69.2689 19.522 69.0456 19.7007C68.8297 19.8793 68.5803 20.0171 68.2974 20.1138C68.022 20.2106 67.713 20.259 67.3706 20.259ZM74.5213 20.192C73.8885 20.192 73.3972 20.0133 73.0473 19.656C72.6974 19.2987 72.5224 18.7962 72.5224 18.1485V15.2228H71.4616V14.0838H71.6291C71.912 14.0838 72.1316 14.0019 72.2879 13.8382C72.4443 13.6744 72.5224 13.4511 72.5224 13.1682V12.6992H73.7843V14.0838H75.1578V15.2228H73.7843V18.0927C73.7843 18.3011 73.8178 18.4798 73.8848 18.6287C73.9518 18.7701 74.0597 18.8818 74.2086 18.9637C74.3575 19.0381 74.5511 19.0753 74.7893 19.0753C74.8488 19.0753 74.9158 19.0716 74.9903 19.0642C75.0647 19.0567 75.1354 19.0493 75.2024 19.0418V20.125C75.0982 20.1399 74.9828 20.1548 74.8563 20.1697C74.7297 20.1846 74.6181 20.192 74.5213 20.192ZM79.1611 20.259C78.5581 20.259 78.0221 20.1213 77.5531 19.8458C77.0916 19.5629 76.7305 19.1833 76.4699 18.7068C76.2094 18.2229 76.0791 17.6832 76.0791 17.0877C76.0791 16.4772 76.2094 15.9375 76.4699 15.4685C76.7379 14.9995 77.0953 14.631 77.5419 14.363C77.9886 14.0876 78.4948 13.9498 79.0606 13.9498C79.5147 13.9498 79.9204 14.028 80.2778 14.1843C80.6351 14.3407 80.9366 14.5566 81.1823 14.832C81.4279 15.1 81.6141 15.4089 81.7406 15.7588C81.8746 16.1087 81.9416 16.4809 81.9416 16.8755C81.9416 16.9723 81.9379 17.0728 81.9304 17.177C81.923 17.2812 81.9081 17.378 81.8858 17.4673H77.0729V16.4623H81.1711L80.5681 16.9202C80.6426 16.5554 80.6165 16.2316 80.4899 15.9487C80.3708 15.6583 80.1847 15.4313 79.9316 15.2675C79.6859 15.0963 79.3956 15.0107 79.0606 15.0107C78.7256 15.0107 78.4278 15.0963 78.1673 15.2675C77.9067 15.4313 77.7057 15.6695 77.5643 15.9822C77.4228 16.2874 77.367 16.6596 77.3968 17.0988C77.3596 17.5083 77.4154 17.8656 77.5643 18.1708C77.7206 18.4761 77.9365 18.7143 78.2119 18.8855C78.4948 19.0567 78.8149 19.1423 79.1723 19.1423C79.5371 19.1423 79.846 19.0604 80.0991 18.8967C80.3597 18.7329 80.5644 18.5207 80.7133 18.2602L81.7406 18.7627C81.6215 19.0456 81.4354 19.3024 81.1823 19.5332C80.9366 19.7565 80.6388 19.9352 80.2889 20.0692C79.9465 20.1957 79.5706 20.259 79.1611 20.259ZM85.9648 20.259C85.3841 20.259 84.863 20.1213 84.4014 19.8458C83.9473 19.5629 83.5863 19.1833 83.3183 18.7068C83.0577 18.2304 82.9274 17.6944 82.9274 17.0988C82.9274 16.5033 83.0614 15.9673 83.3294 15.4908C83.5974 15.0144 83.9585 14.6384 84.4126 14.363C84.8667 14.0876 85.3804 13.9498 85.9536 13.9498C86.4375 13.9498 86.8655 14.0466 87.2378 14.2402C87.61 14.4337 87.904 14.7017 88.1199 15.0442L87.9301 15.3345V11.6718H89.1808V20.125H87.9859V18.8967L88.1311 19.1312C87.9226 19.4959 87.6249 19.7751 87.2378 19.9687C86.8506 20.1622 86.4263 20.259 85.9648 20.259ZM86.0876 19.0865C86.4375 19.0865 86.7501 19.0009 87.0256 18.8297C87.3085 18.6584 87.5281 18.4239 87.6844 18.1262C87.8482 17.8209 87.9301 17.4785 87.9301 17.0988C87.9301 16.7192 87.8482 16.3804 87.6844 16.0827C87.5281 15.7849 87.3085 15.5504 87.0256 15.3792C86.7501 15.2079 86.4375 15.1223 86.0876 15.1223C85.7377 15.1223 85.4213 15.2079 85.1384 15.3792C84.8555 15.5504 84.6359 15.7849 84.4796 16.0827C84.3233 16.3804 84.2451 16.7192 84.2451 17.0988C84.2451 17.4785 84.3233 17.8209 84.4796 18.1262C84.6359 18.4239 84.8518 18.6584 85.1273 18.8297C85.4101 19.0009 85.7303 19.0865 86.0876 19.0865ZM92.6059 20.125V11.6718H93.8677V15.2675L93.6667 15.1112C93.8156 14.7315 94.0538 14.4449 94.3814 14.2513C94.7089 14.0503 95.0886 13.9498 95.5204 13.9498C95.967 13.9498 96.3616 14.0466 96.704 14.2402C97.0465 14.4337 97.3145 14.7017 97.508 15.0442C97.7016 15.3866 97.7984 15.7774 97.7984 16.2167V20.125H96.5477V16.5628C96.5477 16.2576 96.4881 16.0008 96.369 15.7923C96.2574 15.5764 96.101 15.4127 95.9 15.301C95.699 15.1819 95.4683 15.1223 95.2077 15.1223C94.9546 15.1223 94.7238 15.1819 94.5154 15.301C94.3144 15.4127 94.1543 15.5764 94.0352 15.7923C93.9235 16.0082 93.8677 16.2651 93.8677 16.5628V20.125H92.6059ZM101.985 20.259C101.382 20.259 100.846 20.1213 100.377 19.8458C99.9156 19.5629 99.5546 19.1833 99.294 18.7068C99.0334 18.2229 98.9032 17.6832 98.9032 17.0877C98.9032 16.4772 99.0334 15.9375 99.294 15.4685C99.562 14.9995 99.9193 14.631 100.366 14.363C100.813 14.0876 101.319 13.9498 101.885 13.9498C102.339 13.9498 102.745 14.028 103.102 14.1843C103.459 14.3407 103.761 14.5566 104.006 14.832C104.252 15.1 104.438 15.4089 104.565 15.7588C104.699 16.1087 104.766 16.4809 104.766 16.8755C104.766 16.9723 104.762 17.0728 104.755 17.177C104.747 17.2812 104.732 17.378 104.71 17.4673H99.897V16.4623H103.995L103.392 16.9202C103.467 16.5554 103.441 16.2316 103.314 15.9487C103.195 15.6583 103.009 15.4313 102.756 15.2675C102.51 15.0963 102.22 15.0107 101.885 15.0107C101.55 15.0107 101.252 15.0963 100.991 15.2675C100.731 15.4313 100.53 15.6695 100.388 15.9822C100.247 16.2874 100.191 16.6596 100.221 17.0988C100.184 17.5083 100.239 17.8656 100.388 18.1708C100.545 18.4761 100.761 18.7143 101.036 18.8855C101.319 19.0567 101.639 19.1423 101.996 19.1423C102.361 19.1423 102.67 19.0604 102.923 18.8967C103.184 18.7329 103.388 18.5207 103.537 18.2602L104.565 18.7627C104.446 19.0456 104.259 19.3024 104.006 19.5332C103.761 19.7565 103.463 19.9352 103.113 20.0692C102.771 20.1957 102.395 20.259 101.985 20.259ZM107.752 20.259C107.342 20.259 106.981 20.1883 106.668 20.0468C106.363 19.8979 106.125 19.6969 105.954 19.4438C105.783 19.1833 105.697 18.8781 105.697 18.5282C105.697 18.2006 105.768 17.9066 105.909 17.646C106.058 17.3854 106.285 17.1658 106.59 16.9872C106.896 16.8085 107.279 16.6819 107.74 16.6075L109.84 16.2613V17.2552L107.986 17.579C107.651 17.6386 107.405 17.7465 107.249 17.9028C107.093 18.0517 107.015 18.2453 107.015 18.4835C107.015 18.7143 107.1 18.9041 107.271 19.053C107.45 19.1944 107.677 19.2652 107.953 19.2652C108.295 19.2652 108.593 19.1907 108.846 19.0418C109.107 18.8929 109.308 18.6957 109.449 18.45C109.59 18.1969 109.661 17.9177 109.661 17.6125V16.0603C109.661 15.7626 109.549 15.5206 109.326 15.3345C109.11 15.1409 108.82 15.0442 108.455 15.0442C108.12 15.0442 107.826 15.1335 107.573 15.3122C107.327 15.4834 107.145 15.7067 107.026 15.9822L105.976 15.4573C106.088 15.1596 106.27 14.899 106.523 14.6757C106.776 14.4449 107.07 14.2662 107.405 14.1397C107.748 14.0131 108.109 13.9498 108.489 13.9498C108.965 13.9498 109.386 14.0392 109.75 14.2178C110.123 14.3965 110.409 14.6459 110.61 14.966C110.819 15.2787 110.923 15.6434 110.923 16.0603V20.125H109.717V19.0307L109.974 19.0642C109.832 19.3098 109.65 19.522 109.427 19.7007C109.211 19.8793 108.961 20.0171 108.678 20.1138C108.403 20.2106 108.094 20.259 107.752 20.259ZM112.398 20.125V11.6718H113.66V20.125H112.398ZM117.748 20.192C117.116 20.192 116.624 20.0133 116.274 19.656C115.925 19.2987 115.75 18.7962 115.75 18.1485V15.2228H114.689V14.0838H114.856C115.139 14.0838 115.359 14.0019 115.515 13.8382C115.671 13.6744 115.75 13.4511 115.75 13.1682V12.6992H117.011V14.0838H118.385V15.2228H117.011V18.0927C117.011 18.3011 117.045 18.4798 117.112 18.6287C117.179 18.7701 117.287 18.8818 117.436 18.9637C117.585 19.0381 117.778 19.0753 118.016 19.0753C118.076 19.0753 118.143 19.0716 118.217 19.0642C118.292 19.0567 118.363 19.0493 118.43 19.0418V20.125C118.325 20.1399 118.21 20.1548 118.083 20.1697C117.957 20.1846 117.845 20.192 117.748 20.192ZM119.661 20.125V11.6718H120.923V15.2675L120.722 15.1112C120.871 14.7315 121.109 14.4449 121.437 14.2513C121.764 14.0503 122.144 13.9498 122.576 13.9498C123.022 13.9498 123.417 14.0466 123.759 14.2402C124.102 14.4337 124.37 14.7017 124.563 15.0442C124.757 15.3866 124.854 15.7774 124.854 16.2167V20.125H123.603V16.5628C123.603 16.2576 123.543 16.0008 123.424 15.7923C123.313 15.5764 123.156 15.4127 122.955 15.301C122.754 15.1819 122.523 15.1223 122.263 15.1223C122.01 15.1223 121.779 15.1819 121.571 15.301C121.37 15.4127 121.209 15.5764 121.09 15.7923C120.979 16.0082 120.923 16.2651 120.923 16.5628V20.125H119.661ZM129.074 20.259C128.471 20.259 127.935 20.1213 127.466 19.8458C127.004 19.5629 126.636 19.1833 126.36 18.7068C126.092 18.2304 125.958 17.6907 125.958 17.0877C125.958 16.4921 126.092 15.9561 126.36 15.4797C126.628 15.0032 126.997 14.631 127.466 14.363C127.935 14.0876 128.471 13.9498 129.074 13.9498C129.483 13.9498 129.867 14.0243 130.224 14.1732C130.581 14.3146 130.89 14.5119 131.151 14.765C131.419 15.0181 131.616 15.3122 131.743 15.6472L130.637 16.1608C130.511 15.8482 130.306 15.5988 130.023 15.4127C129.748 15.2191 129.431 15.1223 129.074 15.1223C128.731 15.1223 128.422 15.2079 128.147 15.3792C127.879 15.5429 127.667 15.7774 127.511 16.0827C127.354 16.3804 127.276 16.7192 127.276 17.0988C127.276 17.4785 127.354 17.8209 127.511 18.1262C127.667 18.4239 127.879 18.6584 128.147 18.8297C128.422 19.0009 128.731 19.0865 129.074 19.0865C129.439 19.0865 129.755 18.9934 130.023 18.8073C130.298 18.6138 130.503 18.3569 130.637 18.0368L131.743 18.5617C131.624 18.8818 131.43 19.1721 131.162 19.4327C130.901 19.6858 130.593 19.8868 130.235 20.0357C129.878 20.1846 129.491 20.259 129.074 20.259ZM134.73 20.259C134.321 20.259 133.96 20.1883 133.647 20.0468C133.342 19.8979 133.104 19.6969 132.933 19.4438C132.761 19.1833 132.676 18.8781 132.676 18.5282C132.676 18.2006 132.747 17.9066 132.888 17.646C133.037 17.3854 133.264 17.1658 133.569 16.9872C133.874 16.8085 134.258 16.6819 134.719 16.6075L136.819 16.2613V17.2552L134.965 17.579C134.63 17.6386 134.384 17.7465 134.228 17.9028C134.072 18.0517 133.993 18.2453 133.993 18.4835C133.993 18.7143 134.079 18.9041 134.25 19.053C134.429 19.1944 134.656 19.2652 134.931 19.2652C135.274 19.2652 135.572 19.1907 135.825 19.0418C136.085 18.8929 136.286 18.6957 136.428 18.45C136.569 18.1969 136.64 17.9177 136.64 17.6125V16.0603C136.64 15.7626 136.528 15.5206 136.305 15.3345C136.089 15.1409 135.799 15.0442 135.434 15.0442C135.099 15.0442 134.805 15.1335 134.552 15.3122C134.306 15.4834 134.124 15.7067 134.005 15.9822L132.955 15.4573C133.067 15.1596 133.249 14.899 133.502 14.6757C133.755 14.4449 134.049 14.2662 134.384 14.1397C134.727 14.0131 135.088 13.9498 135.467 13.9498C135.944 13.9498 136.365 14.0392 136.729 14.2178C137.102 14.3965 137.388 14.6459 137.589 14.966C137.798 15.2787 137.902 15.6434 137.902 16.0603V20.125H136.696V19.0307L136.953 19.0642C136.811 19.3098 136.629 19.522 136.405 19.7007C136.19 19.8793 135.94 20.0171 135.657 20.1138C135.382 20.2106 135.073 20.259 134.73 20.259ZM139.377 20.125V14.0838H140.583V15.301L140.472 15.1223C140.606 14.7278 140.821 14.4449 141.119 14.2737C141.417 14.095 141.774 14.0057 142.191 14.0057H142.56V15.1558H142.035C141.618 15.1558 141.279 15.2861 141.019 15.5467C140.766 15.7998 140.639 16.1646 140.639 16.641V20.125H139.377ZM146.259 20.259C145.656 20.259 145.12 20.1213 144.651 19.8458C144.19 19.5629 143.829 19.1833 143.568 18.7068C143.308 18.2229 143.177 17.6832 143.177 17.0877C143.177 16.4772 143.308 15.9375 143.568 15.4685C143.836 14.9995 144.193 14.631 144.64 14.363C145.087 14.0876 145.593 13.9498 146.159 13.9498C146.613 13.9498 147.019 14.028 147.376 14.1843C147.733 14.3407 148.035 14.5566 148.28 14.832C148.526 15.1 148.712 15.4089 148.839 15.7588C148.973 16.1087 149.04 16.4809 149.04 16.8755C149.04 16.9723 149.036 17.0728 149.029 17.177C149.021 17.2812 149.006 17.378 148.984 17.4673H144.171V16.4623H148.269L147.666 16.9202C147.741 16.5554 147.715 16.2316 147.588 15.9487C147.469 15.6583 147.283 15.4313 147.03 15.2675C146.784 15.0963 146.494 15.0107 146.159 15.0107C145.824 15.0107 145.526 15.0963 145.265 15.2675C145.005 15.4313 144.804 15.6695 144.662 15.9822C144.521 16.2874 144.465 16.6596 144.495 17.0988C144.458 17.5083 144.514 17.8656 144.662 18.1708C144.819 18.4761 145.035 18.7143 145.31 18.8855C145.593 19.0567 145.913 19.1423 146.27 19.1423C146.635 19.1423 146.944 19.0604 147.197 18.8967C147.458 18.7329 147.663 18.5207 147.811 18.2602L148.839 18.7627C148.72 19.0456 148.534 19.3024 148.28 19.5332C148.035 19.7565 147.737 19.9352 147.387 20.0692C147.045 20.1957 146.669 20.259 146.259 20.259ZM154.457 20.259C153.839 20.259 153.295 20.1064 152.826 19.8012C152.365 19.4959 152.041 19.0865 151.855 18.5728L152.826 18.115C152.99 18.4574 153.213 18.7292 153.496 18.9302C153.787 19.1312 154.107 19.2317 154.457 19.2317C154.754 19.2317 154.996 19.1647 155.182 19.0307C155.368 18.8967 155.462 18.7143 155.462 18.4835C155.462 18.3346 155.421 18.2155 155.339 18.1262C155.257 18.0294 155.153 17.9512 155.026 17.8917C154.907 17.8321 154.784 17.7874 154.658 17.7577L153.708 17.4897C153.187 17.3408 152.796 17.1174 152.536 16.8197C152.283 16.5144 152.156 16.1608 152.156 15.7588C152.156 15.3941 152.249 15.0777 152.435 14.8097C152.621 14.5342 152.878 14.3221 153.206 14.1732C153.533 14.0243 153.902 13.9498 154.311 13.9498C154.862 13.9498 155.354 14.0876 155.785 14.363C156.217 14.631 156.522 15.0069 156.701 15.4908L155.73 15.9487C155.61 15.6583 155.421 15.4276 155.16 15.2563C154.907 15.0851 154.62 14.9995 154.3 14.9995C154.025 14.9995 153.805 15.0665 153.641 15.2005C153.478 15.3271 153.396 15.4946 153.396 15.703C153.396 15.8444 153.433 15.9636 153.507 16.0603C153.582 16.1497 153.679 16.2241 153.798 16.2837C153.917 16.3358 154.04 16.3804 154.166 16.4177L155.149 16.708C155.648 16.8494 156.031 17.0728 156.299 17.378C156.567 17.6758 156.701 18.0331 156.701 18.45C156.701 18.8073 156.604 19.1237 156.411 19.3992C156.225 19.6672 155.964 19.8793 155.629 20.0357C155.294 20.1846 154.903 20.259 154.457 20.259ZM160.774 20.259C160.171 20.259 159.635 20.1213 159.166 19.8458C158.704 19.5629 158.343 19.1833 158.083 18.7068C157.822 18.2229 157.692 17.6832 157.692 17.0877C157.692 16.4772 157.822 15.9375 158.083 15.4685C158.351 14.9995 158.708 14.631 159.155 14.363C159.601 14.0876 160.107 13.9498 160.673 13.9498C161.127 13.9498 161.533 14.028 161.89 14.1843C162.248 14.3407 162.549 14.5566 162.795 14.832C163.041 15.1 163.227 15.4089 163.353 15.7588C163.487 16.1087 163.554 16.4809 163.554 16.8755C163.554 16.9723 163.551 17.0728 163.543 17.177C163.536 17.2812 163.521 17.378 163.498 17.4673H158.686V16.4623H162.784L162.181 16.9202C162.255 16.5554 162.229 16.2316 162.103 15.9487C161.983 15.6583 161.797 15.4313 161.544 15.2675C161.299 15.0963 161.008 15.0107 160.673 15.0107C160.338 15.0107 160.04 15.0963 159.78 15.2675C159.519 15.4313 159.318 15.6695 159.177 15.9822C159.035 16.2874 158.98 16.6596 159.009 17.0988C158.972 17.5083 159.028 17.8656 159.177 18.1708C159.333 18.4761 159.549 18.7143 159.825 18.8855C160.107 19.0567 160.428 19.1423 160.785 19.1423C161.15 19.1423 161.459 19.0604 161.712 18.8967C161.972 18.7329 162.177 18.5207 162.326 18.2602L163.353 18.7627C163.234 19.0456 163.048 19.3024 162.795 19.5332C162.549 19.7565 162.251 19.9352 161.902 20.0692C161.559 20.1957 161.183 20.259 160.774 20.259ZM164.786 20.125V14.0838H165.992V15.301L165.88 15.1223C166.014 14.7278 166.23 14.4449 166.528 14.2737C166.825 14.095 167.183 14.0057 167.6 14.0057H167.968V15.1558H167.443C167.026 15.1558 166.688 15.2861 166.427 15.5467C166.174 15.7998 166.048 16.1646 166.048 16.641V20.125H164.786ZM170.585 20.125L168.217 14.0838H169.591L171.411 19.0083H170.908L172.729 14.0838H174.113L171.735 20.125H170.585ZM174.971 20.125V14.0838H176.233V20.125H174.971ZM174.971 13.2575V11.8058H176.233V13.2575H174.971ZM180.578 20.259C179.975 20.259 179.439 20.1213 178.97 19.8458C178.508 19.5629 178.14 19.1833 177.864 18.7068C177.596 18.2304 177.462 17.6907 177.462 17.0877C177.462 16.4921 177.596 15.9561 177.864 15.4797C178.132 15.0032 178.501 14.631 178.97 14.363C179.439 14.0876 179.975 13.9498 180.578 13.9498C180.987 13.9498 181.371 14.0243 181.728 14.1732C182.085 14.3146 182.394 14.5119 182.655 14.765C182.923 15.0181 183.12 15.3122 183.247 15.6472L182.141 16.1608C182.015 15.8482 181.81 15.5988 181.527 15.4127C181.252 15.2191 180.935 15.1223 180.578 15.1223C180.235 15.1223 179.927 15.2079 179.651 15.3792C179.383 15.5429 179.171 15.7774 179.015 16.0827C178.858 16.3804 178.78 16.7192 178.78 17.0988C178.78 17.4785 178.858 17.8209 179.015 18.1262C179.171 18.4239 179.383 18.6584 179.651 18.8297C179.927 19.0009 180.235 19.0865 180.578 19.0865C180.943 19.0865 181.259 18.9934 181.527 18.8073C181.803 18.6138 182.007 18.3569 182.141 18.0368L183.247 18.5617C183.128 18.8818 182.934 19.1721 182.666 19.4327C182.406 19.6858 182.097 19.8868 181.739 20.0357C181.382 20.1846 180.995 20.259 180.578 20.259ZM187.316 20.259C186.713 20.259 186.177 20.1213 185.708 19.8458C185.247 19.5629 184.886 19.1833 184.625 18.7068C184.365 18.2229 184.234 17.6832 184.234 17.0877C184.234 16.4772 184.365 15.9375 184.625 15.4685C184.893 14.9995 185.251 14.631 185.697 14.363C186.144 14.0876 186.65 13.9498 187.216 13.9498C187.67 13.9498 188.076 14.028 188.433 14.1843C188.79 14.3407 189.092 14.5566 189.338 14.832C189.583 15.1 189.769 15.4089 189.896 15.7588C190.03 16.1087 190.097 16.4809 190.097 16.8755C190.097 16.9723 190.093 17.0728 190.086 17.177C190.078 17.2812 190.063 17.378 190.041 17.4673H185.228V16.4623H189.326L188.723 16.9202C188.798 16.5554 188.772 16.2316 188.645 15.9487C188.526 15.6583 188.34 15.4313 188.087 15.2675C187.841 15.0963 187.551 15.0107 187.216 15.0107C186.881 15.0107 186.583 15.0963 186.323 15.2675C186.062 15.4313 185.861 15.6695 185.72 15.9822C185.578 16.2874 185.522 16.6596 185.552 17.0988C185.515 17.5083 185.571 17.8656 185.72 18.1708C185.876 18.4761 186.092 18.7143 186.367 18.8855C186.65 19.0567 186.97 19.1423 187.328 19.1423C187.692 19.1423 188.001 19.0604 188.254 18.8967C188.515 18.7329 188.72 18.5207 188.869 18.2602L189.896 18.7627C189.777 19.0456 189.591 19.3024 189.338 19.5332C189.092 19.7565 188.794 19.9352 188.444 20.0692C188.102 20.1957 187.726 20.259 187.316 20.259Z" fill="#01594E"/>
<defs>
<clipPath id="clip0_1_248">
<rect width="14.8889" height="14.8889" fill="white" transform="translate(8.00002 7.68059)"/>
</clipPath>
</defs>
</svg>
