<svg width="28" height="27" viewBox="0 0 28 27" fill="none" xmlns="http://www.w3.org/2000/svg">
<path d="M13.9375 7.19857C13.9375 10.5712 11.1635 13.3053 7.7417 13.3053H1.54591V7.19857C1.54591 3.82589 4.31986 1.0918 7.7417 1.0918C11.1635 1.0918 13.9375 3.82589 13.9375 7.19857Z" fill="#017D6E"/>
<path d="M13.9375 19.4119C13.9375 16.0393 16.7115 13.3052 20.1333 13.3052H26.3291V19.4119C26.3291 22.7846 23.5551 25.5187 20.1333 25.5187C16.7115 25.5187 13.9375 22.7846 13.9375 19.4119Z" fill="#017D6E"/>
<path d="M1.54591 19.4119C1.54591 22.7846 4.31986 25.5187 7.7417 25.5187H13.9375V19.4119C13.9375 16.0393 11.1635 13.3052 7.7417 13.3052C4.31986 13.3052 1.54591 16.0393 1.54591 19.4119Z" fill="#017D6E"/>
<path d="M26.3291 7.19857C26.3291 3.82589 23.5551 1.0918 20.1333 1.0918H13.9375V7.19857C13.9375 10.5712 16.7115 13.3053 20.1333 13.3053C23.5551 13.3053 26.3291 10.5712 26.3291 7.19857Z" fill="#017D6E"/>
</svg>
