<svg width="1340" height="213" viewBox="0 0 1340 213" fill="none" xmlns="http://www.w3.org/2000/svg">
<rect width="1340" height="212.111" transform="translate(0 0.083374)" fill="#F9FAFA"/>
<path d="M627.873 65.7501V53.5598H624.113V51.8848H633.419V53.5598H629.715V65.7501H627.873ZM633.863 65.7501V55.7187H635.557V57.5612L635.371 57.3006C635.607 56.7299 635.966 56.308 636.45 56.0351C636.934 55.7497 637.524 55.607 638.218 55.607H638.833V57.2448H637.958C637.251 57.2448 636.68 57.4681 636.246 57.9148C635.811 58.349 635.594 58.9694 635.594 59.7759V65.7501H633.863ZM643.925 65.9734C643.205 65.9734 642.554 65.8059 641.971 65.4709C641.4 65.1359 640.953 64.6706 640.631 64.0751C640.32 63.4671 640.165 62.7723 640.165 61.9906V55.7187H641.896V61.8045C641.896 62.3008 641.995 62.7351 642.194 63.1073C642.405 63.4795 642.69 63.7711 643.05 63.982C643.422 64.1929 643.844 64.2984 644.316 64.2984C644.787 64.2984 645.203 64.1929 645.562 63.982C645.935 63.7711 646.22 63.4671 646.419 63.0701C646.629 62.673 646.735 62.2015 646.735 61.6556V55.7187H648.484V65.7501H646.791V63.7959L647.07 63.9634C646.834 64.5962 646.431 65.0925 645.86 65.4523C645.302 65.7997 644.657 65.9734 643.925 65.9734ZM654.758 65.9734C653.753 65.9734 652.878 65.7252 652.134 65.2289C651.389 64.7327 650.862 64.0627 650.552 63.2189L651.929 62.5489C652.214 63.1445 652.605 63.616 653.101 63.9634C653.598 64.3108 654.15 64.4845 654.758 64.4845C655.304 64.4845 655.757 64.3542 656.116 64.0937C656.476 63.8331 656.656 63.4919 656.656 63.0701C656.656 62.7723 656.569 62.5365 656.396 62.3628C656.234 62.1767 656.036 62.034 655.8 61.9348C655.564 61.8231 655.347 61.7425 655.149 61.6928L653.641 61.2648C652.735 61.0042 652.072 60.632 651.65 60.1481C651.24 59.6642 651.036 59.0997 651.036 58.4545C651.036 57.8589 651.184 57.344 651.482 56.9098C651.792 56.4631 652.208 56.1157 652.729 55.8676C653.263 55.6194 653.858 55.4953 654.516 55.4953C655.397 55.4953 656.185 55.7187 656.879 56.1653C657.587 56.612 658.089 57.2386 658.387 58.0451L656.973 58.6964C656.749 58.1753 656.414 57.7659 655.968 57.4681C655.521 57.1579 655.018 57.0028 654.46 57.0028C653.951 57.0028 653.548 57.1331 653.25 57.3937C652.953 57.6418 652.804 57.9582 652.804 58.3428C652.804 58.6282 652.878 58.8639 653.027 59.0501C653.176 59.2238 653.356 59.3602 653.567 59.4595C653.778 59.5464 653.982 59.6208 654.181 59.6828L655.819 60.1667C656.638 60.4025 657.27 60.7685 657.717 61.2648C658.176 61.7611 658.406 62.3566 658.406 63.0514C658.406 63.6098 658.25 64.1123 657.94 64.5589C657.63 65.0056 657.202 65.353 656.656 65.6012C656.11 65.8493 655.477 65.9734 654.758 65.9734ZM664.747 65.8617C663.767 65.8617 663.01 65.5826 662.477 65.0242C661.956 64.4659 661.695 63.678 661.695 62.6606V57.3751H659.871V55.7187H660.243C660.69 55.7187 661.044 55.5822 661.304 55.3092C661.565 55.0363 661.695 54.6765 661.695 54.2298V53.4109H663.426V55.7187H665.678V57.3751H663.426V62.6048C663.426 62.9398 663.475 63.2314 663.575 63.4795C663.686 63.7277 663.866 63.9262 664.114 64.0751C664.363 64.2115 664.691 64.2798 665.101 64.2798C665.188 64.2798 665.293 64.2736 665.417 64.2612C665.554 64.2488 665.678 64.2364 665.789 64.2239V65.7501C665.628 65.7873 665.448 65.8121 665.25 65.8245C665.051 65.8493 664.884 65.8617 664.747 65.8617ZM672.393 65.9734C671.426 65.9734 670.563 65.7439 669.806 65.2848C669.049 64.8257 668.454 64.1991 668.02 63.4051C667.585 62.5986 667.368 61.699 667.368 60.7064C667.368 59.7014 667.579 58.8081 668.001 58.0264C668.435 57.2448 669.018 56.6306 669.751 56.184C670.495 55.7249 671.326 55.4953 672.244 55.4953C672.989 55.4953 673.646 55.6318 674.217 55.9048C674.8 56.1653 675.29 56.5252 675.687 56.9842C676.097 57.4309 676.407 57.9458 676.618 58.5289C676.841 59.0997 676.953 59.6952 676.953 60.3156C676.953 60.4521 676.941 60.6072 676.916 60.7809C676.903 60.9422 676.885 61.0973 676.86 61.2462H668.634V59.7573H675.855L675.036 60.4273C675.148 59.7821 675.086 59.2052 674.85 58.6964C674.614 58.1877 674.267 57.7845 673.808 57.4867C673.349 57.1889 672.828 57.0401 672.244 57.0401C671.661 57.0401 671.128 57.1889 670.644 57.4867C670.16 57.7845 669.782 58.2126 669.509 58.7709C669.248 59.3168 669.143 59.9682 669.192 60.7251C669.143 61.4571 669.254 62.1023 669.527 62.6606C669.813 63.2065 670.21 63.6346 670.718 63.9448C671.239 64.2426 671.804 64.3914 672.412 64.3914C673.082 64.3914 673.646 64.2364 674.106 63.9262C674.565 63.616 674.937 63.2189 675.222 62.7351L676.674 63.4795C676.475 63.9386 676.165 64.3604 675.743 64.7451C675.334 65.1173 674.844 65.4151 674.273 65.6384C673.715 65.8617 673.088 65.9734 672.393 65.9734ZM683.769 65.9734C682.826 65.9734 681.977 65.7439 681.22 65.2848C680.475 64.8257 679.886 64.1991 679.452 63.4051C679.017 62.611 678.8 61.7239 678.8 60.7437C678.8 59.7387 679.017 58.8453 679.452 58.0637C679.886 57.2696 680.475 56.643 681.22 56.184C681.977 55.7249 682.826 55.4953 683.769 55.4953C684.601 55.4953 685.339 55.6752 685.984 56.0351C686.629 56.3825 687.138 56.8539 687.51 57.4495L687.231 57.8776V51.6614H688.981V65.7501H687.287V63.6098L687.51 63.9076C687.163 64.5652 686.654 65.0739 685.984 65.4337C685.327 65.7935 684.588 65.9734 683.769 65.9734ZM683.918 64.2984C684.551 64.2984 685.116 64.1433 685.612 63.8331C686.108 63.5229 686.499 63.1011 686.784 62.5676C687.082 62.0216 687.231 61.4137 687.231 60.7437C687.231 60.0613 687.082 59.4533 686.784 58.9198C686.499 58.3739 686.108 57.9458 685.612 57.6356C685.116 57.3254 684.551 57.1703 683.918 57.1703C683.298 57.1703 682.733 57.3316 682.225 57.6542C681.728 57.9644 681.338 58.3863 681.052 58.9198C680.767 59.4409 680.624 60.0489 680.624 60.7437C680.624 61.4137 680.767 62.0216 681.052 62.5676C681.338 63.1011 681.728 63.5229 682.225 63.8331C682.721 64.1433 683.286 64.2984 683.918 64.2984ZM700.069 65.9734C699.263 65.9734 698.524 65.7935 697.854 65.4337C697.197 65.0739 696.688 64.5652 696.328 63.9076L696.57 63.6098V65.7501H694.877V51.6614H696.607V57.8776L696.347 57.4495C696.719 56.8539 697.228 56.3825 697.873 56.0351C698.518 55.6752 699.256 55.4953 700.088 55.4953C701.031 55.4953 701.874 55.7249 702.619 56.184C703.376 56.643 703.971 57.2696 704.405 58.0637C704.84 58.8453 705.057 59.7387 705.057 60.7437C705.057 61.7239 704.84 62.611 704.405 63.4051C703.971 64.1991 703.376 64.8257 702.619 65.2848C701.874 65.7439 701.024 65.9734 700.069 65.9734ZM699.939 64.2984C700.572 64.2984 701.136 64.1433 701.632 63.8331C702.129 63.5229 702.513 63.1011 702.786 62.5676C703.072 62.0216 703.214 61.4137 703.214 60.7437C703.214 60.0489 703.072 59.4409 702.786 58.9198C702.513 58.3863 702.129 57.9644 701.632 57.6542C701.136 57.3316 700.572 57.1703 699.939 57.1703C699.306 57.1703 698.735 57.3254 698.227 57.6356C697.73 57.9458 697.333 58.3739 697.035 58.9198C696.75 59.4533 696.607 60.0613 696.607 60.7437C696.607 61.4137 696.75 62.0216 697.035 62.5676C697.333 63.1011 697.73 63.5229 698.227 63.8331C698.735 64.1433 699.306 64.2984 699.939 64.2984ZM707.684 69.8445C707.461 69.8445 707.238 69.8259 707.014 69.7887C706.791 69.7515 706.58 69.6894 706.382 69.6026V68.0578C706.518 68.0827 706.686 68.1075 706.884 68.1323C707.095 68.1695 707.3 68.1881 707.498 68.1881C708.081 68.1881 708.522 68.0578 708.82 67.7973C709.13 67.5491 709.421 67.1149 709.694 66.4945L710.327 64.987L710.29 66.4945L706.009 55.7187H707.889L711.22 64.2798H710.662L713.975 55.7187H715.892L711.369 66.9412C711.158 67.4747 710.885 67.9586 710.55 68.3928C710.228 68.8395 709.831 69.1931 709.359 69.4537C708.888 69.7142 708.33 69.8445 707.684 69.8445Z" fill="#919595"/>
<g clip-path="url(#clip0_1_293)">
<path fill-rule="evenodd" clip-rule="evenodd" d="M177.323 122.568C175.792 121.546 173.993 121 172.153 121V111.695C175.834 111.695 179.432 112.786 182.493 114.831C185.553 116.876 187.939 119.783 189.347 123.183C190.756 126.584 191.124 130.326 190.406 133.936C189.688 137.547 187.916 140.863 185.313 143.466C182.71 146.069 179.394 147.841 175.784 148.559C172.173 149.277 168.431 148.909 165.031 147.5C161.63 146.091 158.723 143.706 156.678 140.645C154.633 137.585 153.542 133.987 153.542 130.306H162.847C162.847 132.146 163.393 133.945 164.415 135.476C165.438 137.006 166.891 138.199 168.592 138.903C170.292 139.607 172.163 139.791 173.968 139.432C175.773 139.073 177.431 138.187 178.733 136.886C180.034 135.584 180.92 133.926 181.279 132.121C181.639 130.316 181.454 128.445 180.75 126.745C180.046 125.044 178.853 123.591 177.323 122.568Z" fill="#B5B8B7"/>
<path fill-rule="evenodd" clip-rule="evenodd" d="M162.847 111.695C162.847 112.917 162.607 114.127 162.139 115.256C161.671 116.385 160.986 117.41 160.122 118.275C159.258 119.139 158.232 119.824 157.103 120.292C155.974 120.759 154.764 121 153.542 121L153.542 130.306C155.986 130.306 158.406 129.824 160.664 128.889C162.922 127.954 164.974 126.583 166.702 124.855C168.43 123.126 169.801 121.075 170.736 118.817C171.671 116.559 172.153 114.139 172.153 111.695L162.847 111.695Z" fill="#B5B8B7"/>
<path d="M270.437 125.143H265.922V139.485H270.437V125.143Z" fill="#B5B8B7"/>
<path d="M266.425 122.458C266.896 122.93 267.486 123.166 268.194 123.166C268.903 123.166 269.483 122.93 269.936 122.458C270.389 121.966 270.615 121.376 270.615 120.687C270.615 119.979 270.389 119.389 269.936 118.917C269.483 118.444 268.903 118.208 268.194 118.208C267.486 118.208 266.896 118.444 266.425 118.917C265.971 119.389 265.745 119.979 265.745 120.687C265.745 121.376 265.971 121.966 266.425 122.458Z" fill="#B5B8B7"/>
<path d="M201.145 139.485V118.651H205.778V135.413H215.015V139.485H201.145Z" fill="#B5B8B7"/>
<path fill-rule="evenodd" clip-rule="evenodd" d="M223.359 139.81C221.883 139.81 220.546 139.485 219.345 138.836C218.165 138.167 217.231 137.262 216.542 136.121C215.853 134.98 215.509 133.701 215.509 132.285C215.509 130.868 215.853 129.599 216.542 128.478C217.231 127.357 218.165 126.471 219.345 125.822C220.526 125.153 221.864 124.819 223.359 124.819C224.854 124.819 226.192 125.143 227.372 125.792C228.553 126.442 229.487 127.337 230.176 128.478C230.864 129.599 231.209 130.868 231.209 132.285C231.209 133.701 230.864 134.98 230.176 136.121C229.487 137.262 228.553 138.167 227.372 138.836C226.192 139.485 224.854 139.81 223.359 139.81ZM223.359 135.708C224.008 135.708 224.579 135.57 225.071 135.295C225.562 135 225.936 134.596 226.192 134.085C226.467 133.554 226.605 132.954 226.605 132.285C226.605 131.616 226.467 131.036 226.192 130.544C225.916 130.032 225.533 129.639 225.041 129.363C224.569 129.068 224.008 128.921 223.359 128.921C222.729 128.921 222.169 129.068 221.677 129.363C221.185 129.639 220.801 130.032 220.526 130.544C220.25 131.055 220.113 131.645 220.113 132.314C220.113 132.964 220.25 133.554 220.526 134.085C220.801 134.596 221.185 135 221.677 135.295C222.169 135.57 222.729 135.708 223.359 135.708Z" fill="#B5B8B7"/>
<path fill-rule="evenodd" clip-rule="evenodd" d="M234.784 145.092C235.985 145.643 237.372 145.919 238.945 145.919C240.48 145.919 241.847 145.614 243.047 145.004C244.247 144.394 245.192 143.548 245.88 142.466C246.569 141.384 246.914 140.105 246.914 138.63V125.143H242.487V126.107C242.157 125.83 241.783 125.597 241.365 125.409C240.598 125.035 239.722 124.848 238.739 124.848C237.421 124.848 236.25 125.163 235.227 125.793C234.204 126.402 233.397 127.248 232.807 128.33C232.217 129.393 231.922 130.593 231.922 131.931C231.922 133.249 232.217 134.449 232.807 135.531C233.397 136.613 234.204 137.469 235.227 138.098C236.25 138.728 237.421 139.043 238.739 139.043C239.703 139.043 240.578 138.856 241.365 138.482C241.746 138.301 242.091 138.088 242.398 137.842V138.748C242.398 139.751 242.074 140.528 241.424 141.079C240.795 141.63 239.919 141.905 238.798 141.905C237.893 141.905 237.116 141.748 236.467 141.433C235.837 141.118 235.266 140.656 234.755 140.046L231.981 142.82C232.67 143.804 233.604 144.561 234.784 145.092ZM241.218 134.616C240.765 134.892 240.224 135.029 239.595 135.029C238.965 135.029 238.414 134.892 237.942 134.616C237.49 134.341 237.135 133.967 236.88 133.495C236.624 133.003 236.496 132.482 236.496 131.931C236.496 131.341 236.624 130.809 236.88 130.337C237.135 129.865 237.499 129.491 237.972 129.216C238.444 128.94 238.985 128.803 239.595 128.803C240.224 128.803 240.765 128.94 241.218 129.216C241.69 129.491 242.044 129.865 242.28 130.337C242.536 130.809 242.664 131.341 242.664 131.931C242.664 132.521 242.536 133.052 242.28 133.524C242.044 133.977 241.69 134.341 241.218 134.616Z" fill="#B5B8B7"/>
<path fill-rule="evenodd" clip-rule="evenodd" d="M256.416 139.81C254.94 139.81 253.602 139.485 252.402 138.836C251.221 138.167 250.287 137.262 249.598 136.121C248.91 134.98 248.565 133.701 248.565 132.285C248.565 130.868 248.91 129.599 249.598 128.478C250.287 127.357 251.221 126.471 252.402 125.822C253.582 125.153 254.92 124.819 256.416 124.819C257.91 124.819 259.248 125.143 260.428 125.792C261.609 126.442 262.543 127.337 263.232 128.478C263.92 129.599 264.265 130.868 264.265 132.285C264.265 133.701 263.92 134.98 263.232 136.121C262.543 137.262 261.609 138.167 260.428 138.836C259.248 139.485 257.91 139.81 256.416 139.81ZM256.416 135.708C257.064 135.708 257.635 135.57 258.127 135.295C258.618 135 258.992 134.596 259.248 134.085C259.524 133.554 259.661 132.954 259.661 132.285C259.661 131.616 259.524 131.036 259.248 130.544C258.973 130.032 258.589 129.639 258.097 129.363C257.625 129.068 257.064 128.921 256.416 128.921C255.786 128.921 255.224 129.068 254.733 129.363C254.241 129.639 253.857 130.032 253.582 130.544C253.307 131.055 253.169 131.645 253.169 132.314C253.169 132.964 253.307 133.554 253.582 134.085C253.857 134.596 254.241 135 254.733 135.295C255.224 135.57 255.786 135.708 256.416 135.708Z" fill="#B5B8B7"/>
<path fill-rule="evenodd" clip-rule="evenodd" d="M281.289 139.78C280.326 139.78 279.44 139.594 278.633 139.22C278.209 139.023 277.826 138.788 277.483 138.515V145.535H273.027V125.143H277.542V126.133C277.869 125.865 278.233 125.634 278.633 125.438C279.44 125.045 280.326 124.848 281.289 124.848C282.647 124.848 283.847 125.173 284.89 125.822C285.952 126.471 286.779 127.357 287.369 128.478C287.979 129.599 288.283 130.878 288.283 132.314C288.283 133.751 287.979 135.029 287.369 136.151C286.779 137.272 285.952 138.157 284.89 138.807C283.847 139.456 282.647 139.78 281.289 139.78ZM280.464 135.708C281.112 135.708 281.674 135.56 282.145 135.265C282.638 134.97 283.021 134.567 283.296 134.055C283.572 133.544 283.71 132.964 283.71 132.314C283.71 131.645 283.572 131.055 283.296 130.544C283.021 130.032 282.638 129.639 282.145 129.363C281.674 129.068 281.123 128.921 280.493 128.921C279.864 128.921 279.303 129.068 278.811 129.363C278.338 129.639 277.965 130.032 277.69 130.544C277.414 131.055 277.277 131.645 277.277 132.314C277.277 132.964 277.404 133.544 277.66 134.055C277.936 134.567 278.319 134.97 278.811 135.265C279.303 135.56 279.853 135.708 280.464 135.708Z" fill="#B5B8B7"/>
<path d="M292.703 139.515C293.529 139.731 294.364 139.839 295.21 139.839C297.001 139.839 298.417 139.426 299.46 138.6C300.522 137.774 301.053 136.662 301.053 135.265C301.053 134.36 300.887 133.632 300.552 133.082C300.218 132.511 299.785 132.059 299.254 131.724C298.722 131.39 298.161 131.124 297.571 130.927C296.981 130.731 296.42 130.563 295.89 130.426C295.358 130.288 294.926 130.131 294.591 129.953C294.257 129.776 294.089 129.54 294.089 129.245C294.089 128.97 294.217 128.763 294.472 128.625C294.728 128.468 295.112 128.389 295.624 128.389C296.155 128.389 296.696 128.498 297.246 128.714C297.817 128.93 298.329 129.304 298.781 129.835L301.348 127.239C300.7 126.412 299.854 125.792 298.811 125.379C297.788 124.947 296.667 124.73 295.447 124.73C294.286 124.73 293.273 124.927 292.408 125.32C291.541 125.714 290.872 126.255 290.4 126.943C289.929 127.612 289.692 128.409 289.692 129.334C289.692 130.199 289.86 130.918 290.194 131.488C290.528 132.039 290.961 132.472 291.492 132.786C292.023 133.101 292.584 133.347 293.174 133.524C293.764 133.701 294.325 133.868 294.857 134.026C295.387 134.164 295.821 134.331 296.155 134.528C296.509 134.705 296.686 134.97 296.686 135.324C296.686 135.6 296.538 135.816 296.243 135.974C295.968 136.131 295.565 136.21 295.034 136.21C294.266 136.21 293.558 136.072 292.909 135.797C292.26 135.501 291.698 135.098 291.227 134.587L288.659 137.184C289.152 137.715 289.741 138.187 290.43 138.6C291.138 138.993 291.896 139.298 292.703 139.515Z" fill="#B5B8B7"/>
<path d="M309.287 139.81C307.969 139.81 306.799 139.544 305.776 139.013C304.772 138.462 303.985 137.715 303.415 136.77C302.844 135.806 302.559 134.705 302.559 133.465V125.143H307.074V133.406C307.074 133.898 307.152 134.321 307.31 134.675C307.487 135.029 307.743 135.305 308.077 135.501C308.412 135.698 308.815 135.797 309.287 135.797C309.956 135.797 310.487 135.59 310.881 135.177C311.275 134.744 311.471 134.154 311.471 133.406V125.143H315.986V133.436C315.986 134.695 315.701 135.806 315.13 136.77C314.559 137.715 313.773 138.462 312.769 139.013C311.766 139.544 310.605 139.81 309.287 139.81Z" fill="#B5B8B7"/>
<path d="M322.746 125.143H318.23V139.485H322.746V131.104C322.746 130.613 322.844 130.199 323.041 129.865C323.257 129.531 323.543 129.275 323.897 129.098C324.251 128.901 324.654 128.803 325.106 128.803C325.756 128.803 326.297 129.009 326.729 129.422C327.182 129.816 327.409 130.377 327.409 131.104V139.485H331.924V131.104C331.924 130.613 332.022 130.199 332.219 129.865C332.435 129.531 332.72 129.275 333.075 129.098C333.428 128.901 333.832 128.803 334.284 128.803C334.934 128.803 335.475 129.009 335.907 129.422C336.36 129.816 336.586 130.377 336.586 131.104V139.485H341.102V130.603C341.102 129.403 340.846 128.38 340.334 127.534C339.842 126.668 339.163 126.009 338.298 125.557C337.452 125.084 336.478 124.848 335.376 124.848C334.255 124.848 333.241 125.094 332.337 125.586C331.749 125.899 331.235 126.304 330.795 126.799C330.384 126.281 329.886 125.857 329.297 125.527C328.51 125.075 327.615 124.848 326.612 124.848C325.549 124.848 324.595 125.075 323.75 125.527C323.381 125.715 323.047 125.941 322.746 126.203V125.143Z" fill="#B5B8B7"/>
</g>
<g clip-path="url(#clip1_1_293)">
<path d="M432.774 138.316H443.635V135.048H436.634V122.737H432.774V138.316Z" fill="#B5B8B7"/>
<path d="M450.069 136.137C448.521 136.137 447.714 134.786 447.714 132.76C447.714 130.733 448.521 129.361 450.069 129.361C451.617 129.361 452.446 130.733 452.446 132.76C452.446 134.786 451.617 136.137 450.069 136.137ZM450.091 138.664C453.689 138.664 456.044 136.115 456.044 132.76C456.044 129.404 453.689 126.855 450.091 126.855C446.514 126.855 444.115 129.404 444.115 132.76C444.115 136.115 446.514 138.664 450.091 138.664Z" fill="#B5B8B7"/>
<path d="M462.273 142.172C463.93 142.172 465.391 141.802 466.373 140.93C467.267 140.124 467.855 138.904 467.855 137.226V127.16H464.453V128.358H464.41C463.756 127.422 462.752 126.833 461.27 126.833C458.5 126.833 456.581 129.143 456.581 132.411C456.581 135.832 458.914 137.706 461.422 137.706C462.774 137.706 463.625 137.161 464.279 136.42H464.366V137.531C464.366 138.882 463.734 139.667 462.229 139.667C461.051 139.667 460.463 139.166 460.266 138.577H456.821C457.17 140.909 459.198 142.172 462.273 142.172ZM462.251 135.069C460.921 135.069 460.048 133.98 460.048 132.302C460.048 130.603 460.921 129.513 462.251 129.513C463.734 129.513 464.519 130.777 464.519 132.28C464.519 133.849 463.799 135.069 462.251 135.069Z" fill="#B5B8B7"/>
<path d="M474.851 136.137C473.302 136.137 472.495 134.786 472.495 132.76C472.495 130.733 473.302 129.361 474.851 129.361C476.399 129.361 477.227 130.733 477.227 132.76C477.227 134.786 476.399 136.137 474.851 136.137ZM474.873 138.664C478.47 138.664 480.826 136.115 480.826 132.76C480.826 129.404 478.47 126.855 474.873 126.855C471.296 126.855 468.897 129.404 468.897 132.76C468.897 136.115 471.296 138.664 474.873 138.664Z" fill="#B5B8B7"/>
<path d="M481.864 138.316H485.419V127.16H481.864V138.316ZM481.864 125.613H485.419V122.737H481.864V125.613Z" fill="#B5B8B7"/>
<path d="M486.961 141.998H490.516V137.161H490.559C491.257 138.098 492.282 138.664 493.721 138.664C496.644 138.664 498.585 136.355 498.585 132.738C498.585 129.383 496.774 126.833 493.809 126.833C492.282 126.833 491.192 127.509 490.428 128.511H490.363V127.16H486.961V141.998ZM492.805 135.919C491.279 135.919 490.407 134.677 490.407 132.869C490.407 131.06 491.192 129.688 492.74 129.688C494.267 129.688 494.986 130.951 494.986 132.869C494.986 134.764 494.158 135.919 492.805 135.919Z" fill="#B5B8B7"/>
<path d="M504.372 138.664C507.294 138.664 509.453 137.401 509.453 134.96C509.453 132.106 507.141 131.605 505.179 131.278C503.761 131.017 502.496 130.908 502.496 130.123C502.496 129.426 503.172 129.099 504.045 129.099C505.026 129.099 505.702 129.404 505.833 130.407H509.104C508.93 128.206 507.229 126.833 504.066 126.833C501.428 126.833 499.247 128.053 499.247 130.407C499.247 133.021 501.319 133.544 503.26 133.871C504.743 134.132 506.095 134.241 506.095 135.244C506.095 135.963 505.419 136.355 504.35 136.355C503.172 136.355 502.431 135.81 502.3 134.699H498.942C499.051 137.161 501.101 138.664 504.372 138.664Z" fill="#B5B8B7"/>
<path d="M514.282 138.643C515.83 138.643 516.811 138.033 517.618 136.943H517.684V138.316H521.086V127.16H517.531V133.392C517.531 134.721 516.79 135.636 515.568 135.636C514.434 135.636 513.889 134.96 513.889 133.74V127.16H510.356V134.481C510.356 136.965 511.708 138.643 514.282 138.643Z" fill="#B5B8B7"/>
<path d="M522.632 138.316H526.187V132.063C526.187 130.733 526.841 129.797 527.953 129.797C529.022 129.797 529.524 130.494 529.524 131.692V138.316H533.078V132.063C533.078 130.733 533.711 129.797 534.845 129.797C535.913 129.797 536.415 130.494 536.415 131.692V138.316H539.97V131.06C539.97 128.555 538.705 126.833 536.175 126.833C534.736 126.833 533.536 127.443 532.664 128.794H532.62C532.053 127.596 530.941 126.833 529.48 126.833C527.866 126.833 526.798 127.596 526.1 128.751H526.034V127.16H522.632V138.316Z" fill="#B5B8B7"/>
<path fill-rule="evenodd" clip-rule="evenodd" d="M404.446 148.302C414.483 148.302 422.619 140.173 422.619 130.145C422.619 120.117 414.483 111.988 404.446 111.988C394.409 111.988 386.273 120.117 386.273 130.145C386.273 140.173 394.409 148.302 404.446 148.302ZM407.251 126.017C408.8 124.469 408.8 121.959 407.251 120.412C405.702 118.864 403.19 118.864 401.641 120.412C400.092 121.959 400.092 124.469 401.641 126.017L404.446 128.819L407.251 126.017ZM408.578 132.948C410.127 134.495 412.639 134.495 414.188 132.948C415.737 131.4 415.737 128.89 414.188 127.343C412.639 125.795 410.127 125.795 408.578 127.343L405.773 130.145L408.578 132.948ZM407.251 139.879C408.8 138.331 408.8 135.821 407.251 134.274L404.446 131.471L401.641 134.274C400.092 135.821 400.092 138.331 401.641 139.879C403.19 141.426 405.702 141.426 407.251 139.879ZM394.704 132.948C393.155 131.4 393.155 128.89 394.704 127.343C396.253 125.795 398.765 125.795 400.314 127.343L403.119 130.145L400.314 132.948C398.765 134.495 396.253 134.495 394.704 132.948Z" fill="#B5B8B7"/>
</g>
<g clip-path="url(#clip2_1_293)">
<path d="M630.083 137.979H640.94V134.711H633.942V122.4H630.083V137.979Z" fill="#B5B8B7"/>
<path d="M647.373 135.8C645.825 135.8 645.018 134.449 645.018 132.423C645.018 130.397 645.825 129.024 647.373 129.024C648.921 129.024 649.749 130.397 649.749 132.423C649.749 134.449 648.921 135.8 647.373 135.8ZM647.395 138.328C650.992 138.328 653.346 135.779 653.346 132.423C653.346 129.068 650.992 126.518 647.395 126.518C643.819 126.518 641.421 129.068 641.421 132.423C641.421 135.779 643.819 138.328 647.395 138.328Z" fill="#B5B8B7"/>
<path d="M659.573 141.836C661.23 141.836 662.691 141.465 663.672 140.594C664.566 139.788 665.154 138.567 665.154 136.89V126.823H661.753V128.022H661.71C661.056 127.085 660.053 126.497 658.57 126.497C655.801 126.497 653.883 128.806 653.883 132.074C653.883 135.495 656.216 137.369 658.723 137.369C660.074 137.369 660.925 136.824 661.579 136.084H661.666V137.195C661.666 138.546 661.034 139.33 659.529 139.33C658.352 139.33 657.763 138.829 657.567 138.241H654.123C654.471 140.572 656.499 141.836 659.573 141.836ZM659.551 134.733C658.221 134.733 657.349 133.643 657.349 131.966C657.349 130.266 658.221 129.177 659.551 129.177C661.034 129.177 661.819 130.44 661.819 131.944C661.819 133.513 661.099 134.733 659.551 134.733Z" fill="#B5B8B7"/>
<path d="M672.147 135.8C670.6 135.8 669.793 134.449 669.793 132.423C669.793 130.397 670.6 129.024 672.147 129.024C673.695 129.024 674.524 130.397 674.524 132.423C674.524 134.449 673.695 135.8 672.147 135.8ZM672.169 138.328C675.767 138.328 678.121 135.779 678.121 132.423C678.121 129.068 675.767 126.518 672.169 126.518C668.594 126.518 666.196 129.068 666.196 132.423C666.196 135.779 668.594 138.328 672.169 138.328Z" fill="#B5B8B7"/>
<path d="M679.159 137.979H682.712V126.823H679.159V137.979ZM679.159 125.276H682.712V122.4H679.159V125.276Z" fill="#B5B8B7"/>
<path d="M684.254 141.661H687.808V136.824H687.851C688.549 137.761 689.574 138.328 691.013 138.328C693.934 138.328 695.874 136.018 695.874 132.401C695.874 129.046 694.065 126.497 691.1 126.497C689.574 126.497 688.484 127.172 687.721 128.174H687.655V126.823H684.254V141.661ZM690.097 135.582C688.571 135.582 687.699 134.34 687.699 132.532C687.699 130.724 688.484 129.351 690.032 129.351C691.558 129.351 692.277 130.615 692.277 132.532C692.277 134.428 691.449 135.582 690.097 135.582Z" fill="#B5B8B7"/>
<path d="M701.66 138.328C704.581 138.328 706.74 137.064 706.74 134.624C706.74 131.769 704.429 131.268 702.467 130.941C701.05 130.68 699.785 130.571 699.785 129.787C699.785 129.089 700.461 128.763 701.333 128.763C702.314 128.763 702.99 129.068 703.121 130.07H706.391C706.217 127.869 704.516 126.497 701.355 126.497C698.717 126.497 696.537 127.717 696.537 130.07C696.537 132.685 698.608 133.207 700.548 133.534C702.031 133.796 703.382 133.905 703.382 134.907C703.382 135.626 702.707 136.018 701.638 136.018C700.461 136.018 699.72 135.473 699.589 134.362H696.231C696.34 136.824 698.39 138.328 701.66 138.328Z" fill="#B5B8B7"/>
<path d="M711.567 138.306C713.115 138.306 714.096 137.696 714.903 136.607H714.968V137.979H718.369V126.823H714.815V133.055C714.815 134.384 714.074 135.299 712.853 135.299C711.72 135.299 711.175 134.624 711.175 133.404V126.823H707.643V134.144C707.643 136.628 708.994 138.306 711.567 138.306Z" fill="#B5B8B7"/>
<path d="M719.915 137.979H723.469V131.726C723.469 130.397 724.123 129.46 725.235 129.46C726.303 129.46 726.805 130.157 726.805 131.355V137.979H730.358V131.726C730.358 130.397 730.99 129.46 732.124 129.46C733.192 129.46 733.694 130.157 733.694 131.355V137.979H737.247V130.724C737.247 128.218 735.983 126.497 733.454 126.497C732.015 126.497 730.816 127.107 729.944 128.458H729.9C729.334 127.259 728.222 126.497 726.761 126.497C725.148 126.497 724.079 127.259 723.382 128.414H723.316V126.823H719.915V137.979Z" fill="#B5B8B7"/>
<path d="M608.402 113.489L604.829 112.532L601.818 123.762L599.1 113.624L595.527 114.581L598.464 125.534L591.149 118.224L588.533 120.838L596.557 128.857L586.565 126.181L585.608 129.751L596.525 132.675C596.4 132.136 596.334 131.575 596.334 130.998C596.334 126.915 599.646 123.605 603.732 123.605C607.817 123.605 611.129 126.915 611.129 130.998C611.129 131.571 611.064 132.129 610.941 132.665L620.863 135.322L621.82 131.751L610.859 128.816L620.852 126.14L619.895 122.569L608.934 125.504L616.249 118.194L613.633 115.58L605.721 123.488L608.402 113.489Z" fill="#B5B8B7"/>
<path d="M610.931 132.706C610.625 134.001 609.978 135.163 609.091 136.095L616.279 143.279L618.894 140.665L610.931 132.706Z" fill="#B5B8B7"/>
<path d="M609.018 136.17C608.12 137.087 606.985 137.771 605.713 138.123L608.328 147.879L611.901 146.922L609.018 136.17Z" fill="#B5B8B7"/>
<path d="M605.579 138.159C604.989 138.311 604.37 138.391 603.732 138.391C603.049 138.391 602.387 138.299 601.759 138.125L599.141 147.89L602.714 148.847L605.579 138.159Z" fill="#B5B8B7"/>
<path d="M601.633 138.089C600.379 137.719 599.265 137.027 598.385 136.107L591.179 143.309L593.795 145.923L601.633 138.089Z" fill="#B5B8B7"/>
<path d="M598.325 136.044C597.46 135.118 596.83 133.971 596.531 132.697L586.576 135.363L587.533 138.933L598.325 136.044Z" fill="#B5B8B7"/>
</g>
<g clip-path="url(#clip3_1_293)">
<path d="M829.72 137.24H840.581V133.972H833.58V121.661H829.72V137.24Z" fill="#B5B8B7"/>
<path d="M847.015 135.061C845.467 135.061 844.66 133.71 844.66 131.684C844.66 129.657 845.467 128.285 847.015 128.285C848.563 128.285 849.392 129.657 849.392 131.684C849.392 133.71 848.563 135.061 847.015 135.061ZM847.037 137.588C850.635 137.588 852.99 135.039 852.99 131.684C852.99 128.328 850.635 125.779 847.037 125.779C843.46 125.779 841.061 128.328 841.061 131.684C841.061 135.039 843.46 137.588 847.037 137.588Z" fill="#B5B8B7"/>
<path d="M859.219 141.096C860.876 141.096 862.337 140.726 863.319 139.854C864.213 139.048 864.802 137.828 864.802 136.15V126.084H861.4V127.282H861.356C860.702 126.345 859.699 125.757 858.216 125.757C855.446 125.757 853.527 128.067 853.527 131.335C853.527 134.756 855.86 136.63 858.368 136.63C859.72 136.63 860.571 136.085 861.225 135.344H861.312V136.455C861.312 137.806 860.68 138.591 859.175 138.591C857.998 138.591 857.409 138.09 857.212 137.501H853.767C854.116 139.833 856.144 141.096 859.219 141.096ZM859.197 133.993C857.867 133.993 856.994 132.904 856.994 131.226C856.994 129.527 857.867 128.437 859.197 128.437C860.68 128.437 861.465 129.701 861.465 131.204C861.465 132.773 860.745 133.993 859.197 133.993Z" fill="#B5B8B7"/>
<path d="M871.797 135.061C870.248 135.061 869.441 133.71 869.441 131.684C869.441 129.657 870.248 128.285 871.797 128.285C873.345 128.285 874.174 129.657 874.174 131.684C874.174 133.71 873.345 135.061 871.797 135.061ZM871.819 137.588C875.417 137.588 877.772 135.039 877.772 131.684C877.772 128.328 875.417 125.779 871.819 125.779C868.242 125.779 865.843 128.328 865.843 131.684C865.843 135.039 868.242 137.588 871.819 137.588Z" fill="#B5B8B7"/>
<path d="M878.81 137.24H882.364V126.084H878.81V137.24ZM878.81 124.537H882.364V121.661H878.81V124.537Z" fill="#B5B8B7"/>
<path d="M883.907 140.922H887.462V136.085H887.506C888.203 137.022 889.228 137.588 890.668 137.588C893.59 137.588 895.531 135.279 895.531 131.662C895.531 128.306 893.721 125.757 890.755 125.757C889.228 125.757 888.138 126.433 887.375 127.435H887.309V126.084H883.907V140.922ZM889.752 134.843C888.225 134.843 887.353 133.601 887.353 131.793C887.353 129.984 888.138 128.612 889.686 128.612C891.213 128.612 891.933 129.875 891.933 131.793C891.933 133.688 891.104 134.843 889.752 134.843Z" fill="#B5B8B7"/>
<path d="M901.318 137.588C904.24 137.588 906.399 136.325 906.399 133.884C906.399 131.03 904.088 130.529 902.125 130.202C900.708 129.941 899.443 129.832 899.443 129.047C899.443 128.35 900.119 128.023 900.991 128.023C901.972 128.023 902.648 128.328 902.779 129.331H906.05C905.876 127.13 904.175 125.757 901.013 125.757C898.374 125.757 896.193 126.977 896.193 129.331C896.193 131.945 898.265 132.468 900.206 132.795C901.689 133.056 903.041 133.165 903.041 134.168C903.041 134.887 902.365 135.279 901.296 135.279C900.119 135.279 899.377 134.734 899.246 133.623H895.888C895.997 136.085 898.047 137.588 901.318 137.588Z" fill="#B5B8B7"/>
<path d="M911.228 137.567C912.776 137.567 913.758 136.957 914.565 135.867H914.63V137.24H918.032V126.084H914.477V132.316C914.477 133.645 913.736 134.56 912.515 134.56C911.381 134.56 910.835 133.884 910.835 132.664V126.084H907.303V133.405C907.303 135.889 908.655 137.567 911.228 137.567Z" fill="#B5B8B7"/>
<path d="M919.578 137.24H923.133V130.986C923.133 129.657 923.787 128.72 924.899 128.72C925.968 128.72 926.469 129.418 926.469 130.616V137.24H930.024V130.986C930.024 129.657 930.656 128.72 931.79 128.72C932.859 128.72 933.36 129.418 933.36 130.616V137.24H936.915V129.984C936.915 127.479 935.65 125.757 933.121 125.757C931.681 125.757 930.482 126.367 929.61 127.718H929.566C928.999 126.52 927.887 125.757 926.426 125.757C924.812 125.757 923.743 126.52 923.045 127.675H922.98V126.084H919.578V137.24Z" fill="#B5B8B7"/>
<path fill-rule="evenodd" clip-rule="evenodd" d="M801.392 148.134C811.429 148.134 819.565 140.005 819.565 129.977C819.565 119.949 811.429 111.82 801.392 111.82C791.355 111.82 783.219 119.949 783.219 129.977C783.219 140.005 791.355 148.134 801.392 148.134ZM807.061 120.278C807.337 119.299 806.386 118.72 805.517 119.338L793.389 127.97C792.447 128.641 792.596 129.977 793.612 129.977H796.806V129.952H803.03L797.958 131.74L795.723 139.676C795.447 140.655 796.398 141.234 797.267 140.616L809.394 131.984C810.337 131.313 810.188 129.977 809.172 129.977H804.329L807.061 120.278Z" fill="#B5B8B7"/>
</g>
<g clip-path="url(#clip4_1_293)">
<path d="M1000.35 148.917C1010.63 148.917 1018.96 140.585 1018.96 130.306V117.278C1018.96 115.797 1018.37 114.377 1017.32 113.33C1016.28 112.283 1014.86 111.695 1013.38 111.695H1001.28V119.859C1001.28 121.722 1001.39 123.652 1002.37 125.238C1003.07 126.374 1004 127.347 1005.11 128.09C1006.22 128.833 1007.48 129.328 1008.79 129.544L1009.15 129.601C1009.3 129.651 1009.42 129.746 1009.51 129.873C1009.6 129.999 1009.65 130.15 1009.65 130.306C1009.65 130.461 1009.6 130.612 1009.51 130.739C1009.42 130.865 1009.3 130.96 1009.15 131.01L1008.79 131.068C1006.87 131.382 1005.09 132.293 1003.71 133.672C1002.33 135.05 1001.42 136.827 1001.11 138.751L1001.05 139.108C1001 139.255 1000.91 139.382 1000.78 139.473C1000.65 139.563 1000.5 139.611 1000.35 139.611C1000.19 139.611 1000.04 139.563 999.914 139.473C999.788 139.382 999.693 139.255 999.643 139.108L999.585 138.751C999.37 137.434 998.874 136.179 998.131 135.071C997.389 133.962 996.416 133.026 995.28 132.327C993.694 131.35 991.764 131.236 989.901 131.236H981.759C982.245 141.082 990.381 148.917 1000.35 148.917Z" fill="#B5B8B7"/>
<path d="M981.736 129.375H989.901C991.764 129.375 993.694 129.262 995.279 128.284C996.519 127.521 997.562 126.477 998.326 125.238C999.303 123.652 999.417 121.722 999.417 119.859V111.695H987.319C985.839 111.695 984.419 112.283 983.371 113.33C982.324 114.377 981.736 115.797 981.736 117.278V129.375ZM1024.97 113.556C1024.97 114.049 1024.77 114.523 1024.42 114.872C1024.07 115.221 1023.6 115.417 1023.1 115.417C1022.61 115.417 1022.14 115.221 1021.79 114.872C1021.44 114.523 1021.24 114.049 1021.24 113.556C1021.24 113.062 1021.44 112.589 1021.79 112.24C1022.14 111.891 1022.61 111.695 1023.1 111.695C1023.6 111.695 1024.07 111.891 1024.42 112.24C1024.77 112.589 1024.97 113.062 1024.97 113.556ZM1178.74 122.958C1183.95 122.958 1186.46 126.592 1186.46 130.801V138.706H1181.01V131.739C1181.01 129.831 1180.32 128.257 1178.32 128.257C1176.33 128.257 1175.66 129.831 1175.66 131.739V138.705H1170.22V131.739C1170.22 129.831 1169.55 128.257 1167.55 128.257C1165.56 128.257 1164.86 129.831 1164.86 131.739V138.705H1159.42V130.8C1159.42 126.591 1161.93 122.957 1167.13 122.957C1169.97 122.957 1172.03 124.077 1172.97 125.925C1173.97 124.077 1176.14 122.956 1178.74 122.956V122.958ZM1149.63 133.86C1151.39 133.86 1152.14 132.255 1152.14 130.347V123.563H1157.59V131.013C1157.59 135.465 1154.99 139.16 1149.63 139.16C1144.28 139.16 1141.68 135.466 1141.68 131.013V123.563H1147.12V130.347C1147.12 132.254 1147.88 133.86 1149.63 133.86ZM1133.67 139.19C1130.25 139.19 1128.05 138.009 1126.75 135.708L1130.68 133.497C1131.22 134.465 1132.04 134.95 1133.4 134.95C1134.52 134.95 1135.03 134.556 1135.03 134.072C1135.03 132.224 1127.05 134.102 1127.05 128.228C1127.05 125.38 1129.47 123.079 1133.58 123.079C1137.18 123.079 1139.15 124.835 1140.02 126.531L1136.09 128.772C1135.76 127.864 1134.73 127.319 1133.7 127.319C1132.92 127.319 1132.49 127.652 1132.49 128.106C1132.49 129.984 1140.48 128.257 1140.48 133.951C1140.48 137.13 1137.36 139.19 1133.67 139.19ZM1114.65 145.671H1109.21V131.104C1109.21 126.47 1112.68 123.109 1117.52 123.109C1122.24 123.109 1125.84 126.713 1125.84 131.104C1125.84 135.949 1122.64 139.16 1117.83 139.16C1116.71 139.16 1115.59 138.827 1114.65 138.311V145.671ZM1117.52 134.042C1119.25 134.042 1120.4 132.709 1120.4 131.134C1120.4 129.53 1119.25 128.227 1117.52 128.227C1115.8 128.227 1114.65 129.53 1114.65 131.135C1114.65 132.709 1115.8 134.042 1117.52 134.042ZM1103.75 121.959C1101.97 121.959 1100.49 120.474 1100.49 118.688C1100.49 116.901 1101.97 115.417 1103.75 115.417C1105.54 115.417 1107.02 116.901 1107.02 118.688C1107.02 120.474 1105.54 121.959 1103.75 121.959ZM1101.03 123.563H1106.47V138.706H1101.03V123.563ZM1090.58 139.16C1085.86 139.16 1082.26 135.526 1082.26 131.104C1082.26 126.713 1085.86 123.079 1090.58 123.079C1095.3 123.079 1098.9 126.713 1098.9 131.104C1098.9 135.526 1095.3 139.16 1090.58 139.16ZM1090.58 134.042C1092.31 134.042 1093.46 132.709 1093.46 131.134C1093.46 129.53 1092.31 128.197 1090.58 128.197C1088.86 128.197 1087.71 129.53 1087.71 131.134C1087.71 132.709 1088.86 134.042 1090.58 134.042ZM1071.98 146.125C1068.23 146.125 1065.51 144.459 1064.12 141.491L1068.63 139.069C1069.11 140.099 1070.02 141.159 1071.89 141.159C1073.86 141.159 1075.16 139.916 1075.31 137.736C1074.59 138.373 1073.44 138.857 1071.71 138.857C1067.51 138.857 1064.12 135.616 1064.12 131.073C1064.12 126.683 1067.72 123.109 1072.44 123.109C1077.28 123.109 1080.76 126.471 1080.76 131.104V137.101C1080.76 142.552 1076.97 146.125 1071.98 146.125ZM1072.35 133.739C1073.98 133.739 1075.22 132.618 1075.22 130.952C1075.22 129.317 1073.98 128.227 1072.35 128.227C1070.74 128.227 1069.47 129.317 1069.47 130.953C1069.47 132.619 1070.74 133.738 1072.35 133.738V133.739ZM1054.88 139.16C1050.17 139.16 1046.57 135.526 1046.57 131.104C1046.57 126.713 1050.17 123.079 1054.88 123.079C1059.6 123.079 1063.2 126.713 1063.2 131.104C1063.2 135.526 1059.6 139.16 1054.88 139.16ZM1054.88 134.042C1056.61 134.042 1057.76 132.709 1057.76 131.134C1057.76 129.53 1056.61 128.197 1054.88 128.197C1053.16 128.197 1052.01 129.53 1052.01 131.134C1052.01 132.709 1053.16 134.042 1054.88 134.042ZM1036.65 118.264V133.557H1045.67V138.706H1035.89C1032.45 138.706 1031.06 136.888 1031.06 134.011V118.264H1036.65Z" fill="#B5B8B7"/>
</g>
<defs>
<clipPath id="clip0_1_293">
<rect width="187.972" height="37.2222" fill="white" transform="translate(153.542 111.695)"/>
</clipPath>
<clipPath id="clip1_1_293">
<rect width="154.472" height="37.2222" fill="white" transform="translate(386.181 111.695)"/>
</clipPath>
<clipPath id="clip2_1_293">
<rect width="152.611" height="37.2222" fill="white" transform="translate(585.319 111.695)"/>
</clipPath>
<clipPath id="clip3_1_293">
<rect width="154.472" height="37.2222" fill="white" transform="translate(782.597 111.695)"/>
</clipPath>
<clipPath id="clip4_1_293">
<rect width="204.722" height="37.2222" fill="white" transform="translate(981.736 111.695)"/>
</clipPath>
</defs>
</svg>
